<?xml version="1.0" encoding="UTF-8"?>
<svg width="492" height="108" version="1.1" viewBox="0 0 130 28.6" xmlns="http://www.w3.org/2000/svg" xmlns:cc="http://creativecommons.org/ns#" xmlns:dc="http://purl.org/dc/elements/1.1/" xmlns:rdf="http://www.w3.org/1999/02/22-rdf-syntax-ns#">
 <title>Uroboros Logo</title>
 <defs>
  <linearGradient id="a" x1="18.6" x2="71.5" y1="241" y2="241" gradientUnits="userSpaceOnUse">
   <stop stop-color="#7da" offset="0"/>
   <stop stop-color="#b8e" offset="1"/>
  </linearGradient>
 </defs>
 <metadata>
  <rdf:RDF>
   <cc:Work rdf:about="">
    <dc:format>image/svg+xml</dc:format>
    <dc:type rdf:resource="http://purl.org/dc/dcmitype/StillImage"/>
    <dc:title>Uroboros Logo</dc:title>
    <dc:creator>
     <cc:Agent>
      <dc:title>Deif Lou</dc:title>
     </cc:Agent>
    </dc:creator>
    <dc:description>Uroboros c++ library.
url: https://github.com/DeifLou/uroboros</dc:description>
    <dc:rights>
     <cc:Agent>
      <dc:title/>
     </cc:Agent>
    </dc:rights>
    <cc:license rdf:resource="http://creativecommons.org/licenses/by-nc-sa/4.0/"/>
   </cc:Work>
   <cc:License rdf:about="http://creativecommons.org/licenses/by-nc-sa/4.0/">
    <cc:permits rdf:resource="http://creativecommons.org/ns#Reproduction"/>
    <cc:permits rdf:resource="http://creativecommons.org/ns#Distribution"/>
    <cc:requires rdf:resource="http://creativecommons.org/ns#Notice"/>
    <cc:requires rdf:resource="http://creativecommons.org/ns#Attribution"/>
    <cc:prohibits rdf:resource="http://creativecommons.org/ns#CommercialUse"/>
    <cc:permits rdf:resource="http://creativecommons.org/ns#DerivativeWorks"/>
    <cc:requires rdf:resource="http://creativecommons.org/ns#ShareAlike"/>
   </cc:License>
  </rdf:RDF>
 </metadata>
 <g transform="translate(-18.6 -226)">
  <path d="m32.9 226a3.4 3.39 0 0 0-3.31 2.64c-4.03 1.14-7.22 4.32-8.36 8.34a3.4 3.39 0 0 0-2.65 3.3 3.4 3.39 0 0 0 2.65 3.3c1.15 4.02 4.33 7.2 8.36 8.34a3.4 3.39 0 0 0 3.31 2.64 3.4 3.39 0 0 0 3.31-2.63c3.15-0.878 5.81-2.97 7.65-5.72-0.819-0.162-1.6-0.491-2.28-0.966-1.45 2.01-3.44 3.53-5.72 4.25a3.4 3.39 0 0 0-2.95-1.72 3.4 3.39 0 0 0-2.95 1.72c-2.99-0.947-5.35-3.3-6.3-6.28a3.4 3.39 0 0 0 1.73-2.95 3.4 3.39 0 0 0-1.73-2.95c0.949-2.98 3.3-5.33 6.3-6.28a3.4 3.39 0 0 0 2.96 1.72 3.4 3.39 0 0 0 2.95-1.72c3.1 0.977 5.65 3.44 7.07 6.58a3.4 3.39 0 0 0-1.28 2.65 3.4 3.39 0 0 0 3.19 3.38c1.46 3.4 4.07 6.21 7.34 7.66a5.16 3.87 0 0 0 5.09 3.25 5.16 3.87 0 0 0 4.32-1.76c-2.59 0.445-4.33-0.597-4.33-0.597s0.853-2.76 4.58-3.33a5.16 3.87 0 0 0-4.56-2.07 5.16 3.87 0 0 0-4.56 2.06c-2.41-1.21-4.37-3.35-5.54-5.96a3.4 3.39 0 0 0 1.28-2.65 3.4 3.39 0 0 0-3.19-3.38c-1.71-3.97-4.97-7.13-9.03-8.27a3.4 3.39 0 0 0-3.31-2.63zm24.3 0a3.4 3.39 0 0 0-3.3 2.61c-3.17 0.867-5.87 2.97-7.72 5.74 0.819 0.162 1.59 0.491 2.28 0.966 1.46-2.03 3.47-3.56 5.78-4.27a3.4 3.39 0 0 0 2.96 1.73 3.4 3.39 0 0 0 2.94-1.71c2.97 0.958 5.3 3.3 6.25 6.26a3.4 3.39 0 0 0-1.73 2.95 3.4 3.39 0 0 0 1.92 3.05c-0.706 3.74-2.88 6.47-7.08 8.45 3.78-0.437 7.96-3.43 9.32-8.2a3.4 3.39 0 0 0 2.64-3.3 3.4 3.39 0 0 0-2.65-3.3c-1.14-4-4.29-7.16-8.29-8.32a3.4 3.39 0 0 0-3.32-2.66zm-1.75 22.6a0.971 0.968 0 0 1 0.971 0.968 0.971 0.968 0 0 1-0.971 0.968 0.971 0.968 0 0 1-0.971-0.968 0.971 0.968 0 0 1 0.971-0.968z" color="#000000" color-rendering="auto" dominant-baseline="auto" fill="url(#a)" image-rendering="auto" shape-rendering="auto" solid-color="#000000" style="font-feature-settings:normal;font-variant-alternates:normal;font-variant-caps:normal;font-variant-ligatures:normal;font-variant-numeric:normal;font-variant-position:normal;isolation:auto;mix-blend-mode:normal;shape-padding:0;text-decoration-color:#000000;text-decoration-line:none;text-decoration-style:solid;text-indent:0;text-orientation:mixed;text-transform:none;white-space:normal"/>
 </g>
 <text x="54.917747" y="19.040464" fill="#000000" font-family="sans-serif" font-size="19.6px" letter-spacing="0px" stroke-width=".489" word-spacing="0px" style="line-height:1.25" xml:space="preserve"><tspan x="54.917747" y="19.040464" font-family="Kollektif" stroke-width=".489">uroboros</tspan></text>
</svg>
