<?xml version="1.0" encoding="UTF-8" standalone="no"?>
<!-- Created with Inkscape (http://www.inkscape.org/) -->

<svg
   xmlns:osb="http://www.openswatchbook.org/uri/2009/osb"
   xmlns:dc="http://purl.org/dc/elements/1.1/"
   xmlns:cc="http://creativecommons.org/ns#"
   xmlns:rdf="http://www.w3.org/1999/02/22-rdf-syntax-ns#"
   xmlns:svg="http://www.w3.org/2000/svg"
   xmlns="http://www.w3.org/2000/svg"
   xmlns:sodipodi="http://sodipodi.sourceforge.net/DTD/sodipodi-0.dtd"
   xmlns:inkscape="http://www.inkscape.org/namespaces/inkscape"
   width="200"
   height="108"
   viewBox="0 0 52.916668 28.575"
   version="1.1"
   id="svg8"
   inkscape:version="0.92.3 (2405546, 2018-03-11)"
   sodipodi:docname="logo_black_inkscape.svg">
  <title
     id="title6772">Uroboros Logo</title>
  <defs
     id="defs2">
    <linearGradient
       id="linearGradient6013"
       osb:paint="solid">
      <stop
         style="stop-color:#000000;stop-opacity:1;"
         offset="0"
         id="stop6011" />
    </linearGradient>
  </defs>
  <sodipodi:namedview
     id="base"
     pagecolor="#ffffff"
     bordercolor="#d4d4d4"
     borderopacity="1"
     inkscape:pageopacity="0.0"
     inkscape:pageshadow="2"
     inkscape:zoom="2"
     inkscape:cx="139.59198"
     inkscape:cy="19.32439"
     inkscape:document-units="px"
     inkscape:current-layer="layer1"
     showgrid="false"
     inkscape:snap-bbox="true"
     inkscape:snap-page="true"
     inkscape:snap-grids="false"
     inkscape:window-width="1366"
     inkscape:window-height="715"
     inkscape:window-x="-8"
     inkscape:window-y="-8"
     inkscape:window-maximized="1"
     units="px"
     showguides="true"
     inkscape:lockguides="false"
     inkscape:guide-bbox="true"
     inkscape:snap-global="false"
     showborder="true"
     inkscape:showpageshadow="false">
    <inkscape:grid
       type="xygrid"
       id="grid815"
       originx="-18.57561"
       originy="-42.071742" />
  </sodipodi:namedview>
  <metadata
     id="metadata5">
    <rdf:RDF>
      <cc:Work
         rdf:about="">
        <dc:format>image/svg+xml</dc:format>
        <dc:type
           rdf:resource="http://purl.org/dc/dcmitype/StillImage" />
        <dc:title>Uroboros Logo</dc:title>
        <dc:creator>
          <cc:Agent>
            <dc:title>Deif Lou</dc:title>
          </cc:Agent>
        </dc:creator>
        <dc:description>Uroboros c++ library.
url: https://github.com/DeifLou/uroboros</dc:description>
        <dc:rights>
          <cc:Agent>
            <dc:title />
          </cc:Agent>
        </dc:rights>
        <cc:license
           rdf:resource="http://creativecommons.org/licenses/by-nc-sa/4.0/" />
      </cc:Work>
      <cc:License
         rdf:about="http://creativecommons.org/licenses/by-nc-sa/4.0/">
        <cc:permits
           rdf:resource="http://creativecommons.org/ns#Reproduction" />
        <cc:permits
           rdf:resource="http://creativecommons.org/ns#Distribution" />
        <cc:requires
           rdf:resource="http://creativecommons.org/ns#Notice" />
        <cc:requires
           rdf:resource="http://creativecommons.org/ns#Attribution" />
        <cc:prohibits
           rdf:resource="http://creativecommons.org/ns#CommercialUse" />
        <cc:permits
           rdf:resource="http://creativecommons.org/ns#DerivativeWorks" />
        <cc:requires
           rdf:resource="http://creativecommons.org/ns#ShareAlike" />
      </cc:License>
    </rdf:RDF>
  </metadata>
  <g
     inkscape:label="Layer 1"
     inkscape:groupmode="layer"
     id="layer1"
     transform="translate(-18.57561,-226.35326)"
     style="display:inline;opacity:1">
    <path
       style="color:#000000;font-style:normal;font-variant:normal;font-weight:normal;font-stretch:normal;font-size:medium;line-height:normal;font-family:sans-serif;font-variant-ligatures:normal;font-variant-position:normal;font-variant-caps:normal;font-variant-numeric:normal;font-variant-alternates:normal;font-feature-settings:normal;text-indent:0;text-align:start;text-decoration:none;text-decoration-line:none;text-decoration-style:solid;text-decoration-color:#000000;letter-spacing:normal;word-spacing:normal;text-transform:none;writing-mode:lr-tb;direction:ltr;text-orientation:mixed;dominant-baseline:auto;baseline-shift:baseline;text-anchor:start;white-space:normal;shape-padding:0;clip-rule:nonzero;display:inline;overflow:visible;visibility:visible;opacity:1;isolation:auto;mix-blend-mode:normal;color-interpolation:sRGB;color-interpolation-filters:linearRGB;solid-color:#000000;solid-opacity:1;vector-effect:none;fill:#000000;fill-opacity:1;fill-rule:nonzero;stroke:none;stroke-width:2.42426014;stroke-linecap:butt;stroke-linejoin:round;stroke-miterlimit:4;stroke-dasharray:none;stroke-dashoffset:0;stroke-opacity:1;color-rendering:auto;image-rendering:auto;shape-rendering:auto;text-rendering:auto;enable-background:accumulate"
       d="m 32.897093,226.35326 a 3.3983185,3.3894055 0 0 0 -3.310136,2.63993 c -4.032389,1.14359 -7.216089,4.31926 -8.363048,8.34114 a 3.3983185,3.3894055 0 0 0 -2.648299,3.30288 3.3983185,3.3894055 0 0 0 2.647825,3.30146 c 1.146319,4.02206 4.329661,7.19785 8.3621,8.34161 a 3.3983185,3.3894055 0 0 0 3.311558,2.64088 3.3983185,3.3894055 0 0 0 3.307766,-2.63096 c 3.145735,-0.87811 5.814525,-2.97208 7.651431,-5.71679 -0.818783,-0.16197 -1.595258,-0.49068 -2.280875,-0.96557 -1.453217,2.00974 -3.44209,3.53205 -5.724705,4.2519 a 3.3983185,3.3894055 0 0 0 -2.953617,-1.7174 3.3983185,3.3894055 0 0 0 -2.954564,1.72307 c -2.992122,-0.94686 -5.347348,-3.29506 -6.297413,-6.27902 a 3.3983185,3.3894055 0 0 0 1.72713,-2.94918 3.3983185,3.3894055 0 0 0 -1.727605,-2.94682 c 0.949453,-2.98408 3.303786,-5.33341 6.295043,-6.28138 a 3.3983185,3.3894055 0 0 0 2.957409,1.72307 3.3983185,3.3894055 0 0 0 2.954091,-1.72213 c 3.098875,0.9766 5.653213,3.43924 7.065922,6.58022 a 3.3983173,3.3894055 0 0 0 -1.281481,2.64704 3.3983173,3.3894055 0 0 0 3.191613,3.38232 c 1.461338,3.40192 4.067501,6.2082 7.338054,7.65644 a 5.1581613,3.873614 0 0 0 5.085149,3.25229 5.1581613,3.873614 0 0 0 4.316169,-1.75524 c -2.590669,0.44457 -4.33276,-0.59721 -4.33276,-0.59721 0,0 0.853361,-2.76345 4.576917,-3.32605 a 5.1581613,3.873614 0 0 0 -4.560326,-2.06873 5.1581613,3.873614 0 0 0 -4.555111,2.06211 c -2.407645,-1.20975 -4.368256,-3.35111 -5.542178,-5.96031 a 3.3983173,3.3894055 0 0 0 1.27911,-2.64562 3.3983173,3.3894055 0 0 0 -3.191138,-3.38185 c -1.705704,-3.97295 -4.972051,-7.13309 -9.034368,-8.26784 a 3.3983185,3.3894055 0 0 0 -3.309663,-2.63426 z m 24.336757,0 a 3.3983185,3.3894055 0 0 0 -3.303501,2.61204 c -3.174997,0.867 -5.868672,2.97101 -7.718277,5.73571 0.818616,0.16203 1.594926,0.49074 2.280401,0.96557 1.464109,-2.02577 3.472369,-3.556 5.77733,-4.26892 a 3.3983185,3.3894055 0 0 0 2.964047,1.73442 3.3983185,3.3894055 0 0 0 2.944606,-1.70605 c 2.966642,0.95802 5.300111,3.29572 6.245264,6.26152 a 3.3983185,3.3894055 0 0 0 -1.728079,2.94966 3.3983185,3.3894055 0 0 0 1.920088,3.04848 c -0.706355,3.74485 -2.876168,6.47347 -7.080621,8.45131 3.775184,-0.43746 7.957101,-3.43065 9.316455,-8.1988 a 3.3983185,3.3894055 0 0 0 2.640714,-3.30099 3.3983185,3.3894055 0 0 0 -2.6483,-3.30147 c -1.139999,-3.99936 -4.293961,-7.16228 -8.293828,-8.32269 a 3.3983185,3.3894055 0 0 0 -3.316299,-2.65979 z m -1.745148,22.55604 a 0.97094792,0.96840347 0 0 1 0.970948,0.96841 0.97094792,0.96840347 0 0 1 -0.970948,0.96841 0.97094792,0.96840347 0 0 1 -0.970948,-0.96841 0.97094792,0.96840347 0 0 1 0.970948,-0.96841 z"
       id="path1449"
       inkscape:connector-curvature="0" />
  </g>
</svg>
