<?xml version="1.0" encoding="UTF-8"?>
<svg width="493" height="108" version="1.1" viewBox="0 0 130 28.6" xmlns="http://www.w3.org/2000/svg" xmlns:cc="http://creativecommons.org/ns#" xmlns:dc="http://purl.org/dc/elements/1.1/" xmlns:rdf="http://www.w3.org/1999/02/22-rdf-syntax-ns#">
 <title>Uroboros Logo</title>
 <defs>
  <linearGradient id="a" x1="18.6" x2="71.5" y1="241" y2="241" gradientUnits="userSpaceOnUse">
   <stop stop-color="#7da" offset="0"/>
   <stop stop-color="#b8e" offset="1"/>
  </linearGradient>
 </defs>
 <metadata>
  <rdf:RDF>
   <cc:Work rdf:about="">
    <dc:format>image/svg+xml</dc:format>
    <dc:type rdf:resource="http://purl.org/dc/dcmitype/StillImage"/>
    <dc:title>Uroboros Logo</dc:title>
    <dc:creator>
     <cc:Agent>
      <dc:title>Deif Lou</dc:title>
     </cc:Agent>
    </dc:creator>
    <dc:description>Uroboros c++ library.
url: https://github.com/DeifLou/uroboros</dc:description>
    <dc:rights>
     <cc:Agent>
      <dc:title/>
     </cc:Agent>
    </dc:rights>
    <cc:license rdf:resource="http://creativecommons.org/licenses/by-nc-sa/4.0/"/>
   </cc:Work>
   <cc:License rdf:about="http://creativecommons.org/licenses/by-nc-sa/4.0/">
    <cc:permits rdf:resource="http://creativecommons.org/ns#Reproduction"/>
    <cc:permits rdf:resource="http://creativecommons.org/ns#Distribution"/>
    <cc:requires rdf:resource="http://creativecommons.org/ns#Notice"/>
    <cc:requires rdf:resource="http://creativecommons.org/ns#Attribution"/>
    <cc:prohibits rdf:resource="http://creativecommons.org/ns#CommercialUse"/>
    <cc:permits rdf:resource="http://creativecommons.org/ns#DerivativeWorks"/>
    <cc:requires rdf:resource="http://creativecommons.org/ns#ShareAlike"/>
   </cc:License>
  </rdf:RDF>
 </metadata>
 <g transform="matrix(.99 0 0 .99 .651 .143)">
  <g transform="translate(-18.7 -226)">
   <path d="m32.9 226a3.4 3.39 0 0 0-3.31 2.64c-4.03 1.14-7.22 4.32-8.36 8.34a3.4 3.39 0 0 0-2.65 3.3 3.4 3.39 0 0 0 2.65 3.3c1.15 4.02 4.33 7.2 8.36 8.34a3.4 3.39 0 0 0 3.31 2.64 3.4 3.39 0 0 0 3.31-2.63c3.15-0.878 5.81-2.97 7.65-5.72-0.819-0.162-1.6-0.491-2.28-0.966-1.45 2.01-3.44 3.53-5.72 4.25a3.4 3.39 0 0 0-2.95-1.72 3.4 3.39 0 0 0-2.95 1.72c-2.99-0.947-5.35-3.3-6.3-6.28a3.4 3.39 0 0 0 1.73-2.95 3.4 3.39 0 0 0-1.73-2.95c0.949-2.98 3.3-5.33 6.3-6.28a3.4 3.39 0 0 0 2.96 1.72 3.4 3.39 0 0 0 2.95-1.72c3.1 0.977 5.65 3.44 7.07 6.58a3.4 3.39 0 0 0-1.28 2.65 3.4 3.39 0 0 0 3.19 3.38c1.46 3.4 4.07 6.21 7.34 7.66a5.16 3.87 0 0 0 5.09 3.25 5.16 3.87 0 0 0 4.32-1.76c-2.59 0.445-4.33-0.597-4.33-0.597s0.853-2.76 4.58-3.33a5.16 3.87 0 0 0-4.56-2.07 5.16 3.87 0 0 0-4.56 2.06c-2.41-1.21-4.37-3.35-5.54-5.96a3.4 3.39 0 0 0 1.28-2.65 3.4 3.39 0 0 0-3.19-3.38c-1.71-3.97-4.97-7.13-9.03-8.27a3.4 3.39 0 0 0-3.31-2.63zm24.3 0a3.4 3.39 0 0 0-3.3 2.61c-3.17 0.867-5.87 2.97-7.72 5.74 0.819 0.162 1.59 0.491 2.28 0.966 1.46-2.03 3.47-3.56 5.78-4.27a3.4 3.39 0 0 0 2.96 1.73 3.4 3.39 0 0 0 2.94-1.71c2.97 0.958 5.3 3.3 6.25 6.26a3.4 3.39 0 0 0-1.73 2.95 3.4 3.39 0 0 0 1.92 3.05c-0.706 3.74-2.88 6.47-7.08 8.45 3.78-0.437 7.96-3.43 9.32-8.2a3.4 3.39 0 0 0 2.64-3.3 3.4 3.39 0 0 0-2.65-3.3c-1.14-4-4.29-7.16-8.29-8.32a3.4 3.39 0 0 0-3.32-2.66zm-1.75 22.6a0.971 0.968 0 0 1 0.971 0.968 0.971 0.968 0 0 1-0.971 0.968 0.971 0.968 0 0 1-0.971-0.968 0.971 0.968 0 0 1 0.971-0.968z" color="#000000" color-rendering="auto" dominant-baseline="auto" fill="url(#a)" image-rendering="auto" shape-rendering="auto" solid-color="#000000" style="font-feature-settings:normal;font-variant-alternates:normal;font-variant-caps:normal;font-variant-ligatures:normal;font-variant-numeric:normal;font-variant-position:normal;isolation:auto;mix-blend-mode:normal;shape-padding:0;text-decoration-color:#000000;text-decoration-line:none;text-decoration-style:solid;text-indent:0;text-orientation:mixed;text-transform:none;white-space:normal"/>
  </g>
  <path d="m84.2 4.77v14.3h1.51l0.392-0.98c0.379 0.379 0.81 0.679 1.29 0.902 0.497 0.209 1.05 0.313 1.67 0.313 0.653 0 1.25-0.124 1.8-0.372 0.562-0.261 1.05-0.614 1.45-1.06s0.719-0.967 0.941-1.57c0.235-0.601 0.353-1.24 0.353-1.92s-0.118-1.32-0.353-1.92c-0.222-0.601-0.536-1.12-0.941-1.57-0.405-0.444-0.888-0.79-1.45-1.04-0.549-0.261-1.15-0.392-1.8-0.392-0.64 0-1.2 0.111-1.69 0.333-0.483 0.209-0.908 0.51-1.27 0.902v-5.94zm-13.1 4.7c-0.64 0-1.18 0.118-1.61 0.353-0.418 0.222-0.758 0.523-1.02 0.902l-0.392-1.04h-1.51v9.39h1.9l0.0196-5.57c0-0.314 0.0654-0.607 0.196-0.882 0.144-0.287 0.333-0.536 0.568-0.745 0.235-0.209 0.516-0.373 0.843-0.49 0.327-0.131 0.679-0.196 1.06-0.196 0.118 0 0.229 0.0132 0.333 0.0393s0.196 0.0525 0.275 0.0786l0.274 0.117 0.49-1.78c-0.536-0.118-1.01-0.176-1.43-0.176zm6.82 0c-0.653 0-1.27 0.131-1.84 0.392-0.562 0.248-1.06 0.594-1.49 1.04-0.418 0.444-0.751 0.967-0.999 1.57-0.248 0.601-0.372 1.24-0.372 1.92s0.124 1.32 0.372 1.92c0.248 0.601 0.581 1.12 0.999 1.57 0.431 0.444 0.928 0.797 1.49 1.06 0.575 0.248 1.19 0.372 1.84 0.372 0.64 0 1.25-0.124 1.82-0.372 0.575-0.261 1.07-0.614 1.49-1.06 0.431-0.444 0.771-0.967 1.02-1.57 0.248-0.601 0.372-1.24 0.372-1.92s-0.124-1.32-0.372-1.92c-0.248-0.601-0.588-1.12-1.02-1.57-0.418-0.444-0.915-0.79-1.49-1.04-0.575-0.261-1.18-0.392-1.82-0.392zm21.8 0c-0.653 0-1.27 0.131-1.84 0.392-0.562 0.248-1.06 0.594-1.49 1.04-0.418 0.444-0.752 0.967-1 1.57-0.248 0.601-0.372 1.24-0.372 1.92s0.124 1.32 0.372 1.92c0.248 0.601 0.582 1.12 1 1.57 0.431 0.444 0.928 0.797 1.49 1.06 0.575 0.248 1.19 0.372 1.84 0.372 0.64 0 1.25-0.124 1.82-0.372 0.575-0.261 1.07-0.614 1.49-1.06 0.431-0.444 0.771-0.967 1.02-1.57s0.372-1.24 0.372-1.92-0.124-1.32-0.372-1.92c-0.248-0.601-0.588-1.12-1.02-1.57-0.418-0.444-0.915-0.79-1.49-1.04-0.575-0.261-1.18-0.392-1.82-0.392zm10.9 0c-0.64 0-1.18 0.118-1.61 0.353-0.418 0.222-0.758 0.523-1.02 0.902l-0.392-1.04h-1.51v9.39h1.9l0.0196-5.57c0-0.314 0.0654-0.607 0.196-0.882 0.144-0.287 0.333-0.536 0.568-0.745 0.235-0.209 0.516-0.373 0.843-0.49 0.327-0.131 0.68-0.196 1.06-0.196 0.118 0 0.229 0.0132 0.333 0.0393 0.105 0.0261 0.196 0.0525 0.274 0.0786l0.275 0.117 0.49-1.78c-0.536-0.118-1.01-0.176-1.43-0.176zm6.82 0c-0.653 0-1.27 0.131-1.84 0.392-0.562 0.248-1.06 0.594-1.49 1.04-0.418 0.444-0.752 0.967-1 1.57-0.248 0.601-0.372 1.24-0.372 1.92s0.124 1.32 0.372 1.92c0.248 0.601 0.582 1.12 1 1.57 0.431 0.444 0.928 0.797 1.49 1.06 0.575 0.248 1.19 0.372 1.84 0.372 0.64 0 1.25-0.124 1.82-0.372 0.575-0.261 1.07-0.614 1.49-1.06 0.431-0.444 0.771-0.967 1.02-1.57 0.248-0.601 0.372-1.24 0.372-1.92s-0.124-1.32-0.372-1.92c-0.248-0.601-0.588-1.12-1.02-1.57-0.418-0.444-0.915-0.79-1.49-1.04-0.575-0.261-1.18-0.392-1.82-0.392zm9.28 0.0584c-0.457 0-0.895 0.0785-1.31 0.235-0.405 0.144-0.764 0.346-1.08 0.608-0.301 0.248-0.542 0.542-0.725 0.882-0.183 0.327-0.275 0.68-0.275 1.06 0 0.405 0.0785 0.758 0.235 1.06 0.17 0.287 0.392 0.542 0.667 0.764 0.287 0.209 0.62 0.392 0.999 0.549 0.379 0.144 0.784 0.268 1.22 0.372 0.157 0.0392 0.353 0.0848 0.588 0.137 0.235 0.0523 0.457 0.131 0.666 0.235 0.222 0.0915 0.405 0.209 0.549 0.353 0.157 0.144 0.235 0.32 0.235 0.529 0 0.17-0.0456 0.32-0.137 0.451-0.0915 0.131-0.196 0.248-0.314 0.353-0.353 0.287-0.791 0.431-1.31 0.431-0.418 0-0.791-0.0785-1.12-0.235-0.327-0.17-0.594-0.483-0.803-0.941l-1.61 0.725c0.222 0.666 0.647 1.2 1.27 1.61 0.64 0.392 1.37 0.588 2.18 0.588 0.536 0 1.03-0.072 1.49-0.216 0.47-0.157 0.869-0.366 1.2-0.627 0.34-0.274 0.601-0.595 0.784-0.96 0.196-0.366 0.294-0.758 0.294-1.18 0-0.353-0.0593-0.666-0.177-0.941-0.105-0.287-0.294-0.549-0.568-0.784s-0.641-0.451-1.1-0.647c-0.457-0.196-1.03-0.379-1.72-0.549-0.157-0.0392-0.327-0.0853-0.51-0.138-0.183-0.0523-0.353-0.117-0.509-0.196-0.157-0.0915-0.294-0.203-0.412-0.334-0.105-0.131-0.157-0.287-0.157-0.47 0-0.17 0.0456-0.32 0.137-0.451 0.105-0.131 0.229-0.242 0.372-0.333 0.144-0.0915 0.301-0.157 0.471-0.196 0.17-0.0523 0.333-0.0786 0.49-0.0786 0.457 0 0.817 0.105 1.08 0.314 0.261 0.209 0.432 0.47 0.51 0.784l1.71-0.412c-0.0653-0.353-0.203-0.673-0.412-0.96-0.196-0.287-0.444-0.529-0.745-0.725-0.287-0.209-0.614-0.373-0.98-0.49-0.366-0.118-0.751-0.176-1.16-0.176zm-70.8 0.157v5.7c0 0.81 0.124 1.47 0.372 1.98 0.261 0.497 0.574 0.889 0.94 1.18 0.379 0.287 0.784 0.477 1.22 0.568 0.431 0.105 0.817 0.157 1.16 0.157 0.536 0 1.02-0.0978 1.45-0.294 0.444-0.196 0.83-0.444 1.16-0.745l0.392 0.843h1.51v-9.39h-1.9v5.72c0 0.392-0.0851 0.725-0.255 1-0.157 0.274-0.353 0.503-0.588 0.686-0.235 0.17-0.49 0.294-0.764 0.372-0.261 0.0784-0.496 0.117-0.705 0.117-0.274 0-0.542-0.039-0.803-0.117-0.261-0.0784-0.497-0.203-0.706-0.372-0.196-0.17-0.359-0.392-0.49-0.667-0.118-0.287-0.176-0.634-0.176-1.04v-5.7zm22 1.49c0.379 0 0.739 0.0846 1.08 0.254 0.34 0.17 0.634 0.399 0.882 0.686 0.248 0.287 0.444 0.627 0.588 1.02 0.144 0.392 0.216 0.81 0.216 1.25s-0.072 0.863-0.216 1.25-0.34 0.738-0.588 1.04c-0.248 0.287-0.542 0.516-0.882 0.686-0.34 0.17-0.699 0.255-1.08 0.255s-0.738-0.0851-1.08-0.255c-0.34-0.17-0.64-0.398-0.902-0.686-0.248-0.301-0.444-0.647-0.588-1.04-0.144-0.392-0.216-0.81-0.216-1.25s0.072-0.862 0.216-1.25c0.144-0.392 0.34-0.731 0.588-1.02 0.261-0.287 0.562-0.516 0.902-0.686 0.34-0.17 0.699-0.254 1.08-0.254zm21.8 0c0.379 0 0.739 0.0846 1.08 0.254 0.34 0.17 0.634 0.399 0.882 0.686 0.248 0.287 0.444 0.627 0.588 1.02 0.144 0.392 0.216 0.81 0.216 1.25s-0.0719 0.863-0.216 1.25c-0.144 0.392-0.34 0.738-0.588 1.04-0.248 0.287-0.542 0.516-0.882 0.686-0.34 0.17-0.699 0.255-1.08 0.255-0.379 0-0.738-0.0851-1.08-0.255-0.34-0.17-0.64-0.398-0.902-0.686-0.248-0.301-0.444-0.647-0.588-1.04-0.144-0.392-0.216-0.81-0.216-1.25s0.0719-0.862 0.216-1.25c0.144-0.392 0.34-0.731 0.588-1.02 0.261-0.287 0.562-0.516 0.902-0.686 0.34-0.17 0.699-0.254 1.08-0.254zm17.8 0c0.379 0 0.738 0.0846 1.08 0.254 0.34 0.17 0.634 0.399 0.882 0.686s0.444 0.627 0.588 1.02c0.144 0.392 0.216 0.81 0.216 1.25s-0.0719 0.863-0.216 1.25c-0.144 0.392-0.34 0.738-0.588 1.04-0.248 0.287-0.542 0.516-0.882 0.686-0.34 0.17-0.699 0.255-1.08 0.255-0.379 0-0.738-0.0851-1.08-0.255-0.34-0.17-0.641-0.398-0.902-0.686-0.248-0.301-0.444-0.647-0.588-1.04-0.144-0.392-0.216-0.81-0.216-1.25s0.072-0.862 0.216-1.25c0.144-0.392 0.339-0.731 0.588-1.02 0.261-0.287 0.562-0.516 0.902-0.686 0.34-0.17 0.699-0.254 1.08-0.254zm-28.6 0.0191c0.379 0 0.738 0.0851 1.08 0.255 0.34 0.157 0.634 0.379 0.882 0.667 0.248 0.287 0.444 0.627 0.588 1.02 0.144 0.392 0.216 0.81 0.216 1.25 0 0.444-0.0719 0.863-0.216 1.25-0.144 0.392-0.34 0.738-0.588 1.04-0.248 0.287-0.542 0.516-0.882 0.686-0.34 0.17-0.699 0.255-1.08 0.255-0.379 0-0.739-0.0654-1.08-0.196-0.34-0.131-0.64-0.327-0.902-0.588-0.248-0.274-0.444-0.614-0.588-1.02-0.144-0.405-0.215-0.882-0.215-1.43 0-0.588 0.0714-1.08 0.215-1.49 0.144-0.405 0.34-0.731 0.588-0.98 0.261-0.261 0.562-0.444 0.902-0.549 0.34-0.118 0.699-0.177 1.08-0.177z" stroke-width=".489"/>
 </g>
</svg>
