<?xml version="1.0" encoding="UTF-8"?>
<svg width="493" height="108" version="1.1" viewBox="0 0 130 28.6" xmlns="http://www.w3.org/2000/svg" xmlns:cc="http://creativecommons.org/ns#" xmlns:dc="http://purl.org/dc/elements/1.1/" xmlns:rdf="http://www.w3.org/1999/02/22-rdf-syntax-ns#">
 <title>Uroboros Logo</title>
 <metadata>
  <rdf:RDF>
   <cc:Work rdf:about="">
    <dc:format>image/svg+xml</dc:format>
    <dc:type rdf:resource="http://purl.org/dc/dcmitype/StillImage"/>
    <dc:title>Uroboros Logo</dc:title>
    <dc:creator>
     <cc:Agent>
      <dc:title>Deif Lou</dc:title>
     </cc:Agent>
    </dc:creator>
    <dc:description>Uroboros c++ library.
url: https://github.com/DeifLou/uroboros</dc:description>
    <dc:rights>
     <cc:Agent>
      <dc:title/>
     </cc:Agent>
    </dc:rights>
    <cc:license rdf:resource="http://creativecommons.org/licenses/by-nc-sa/4.0/"/>
   </cc:Work>
   <cc:License rdf:about="http://creativecommons.org/licenses/by-nc-sa/4.0/">
    <cc:permits rdf:resource="http://creativecommons.org/ns#Reproduction"/>
    <cc:permits rdf:resource="http://creativecommons.org/ns#Distribution"/>
    <cc:requires rdf:resource="http://creativecommons.org/ns#Notice"/>
    <cc:requires rdf:resource="http://creativecommons.org/ns#Attribution"/>
    <cc:prohibits rdf:resource="http://creativecommons.org/ns#CommercialUse"/>
    <cc:permits rdf:resource="http://creativecommons.org/ns#DerivativeWorks"/>
    <cc:requires rdf:resource="http://creativecommons.org/ns#ShareAlike"/>
   </cc:License>
  </rdf:RDF>
 </metadata>
 <g transform="matrix(.99 0 0 .99 .653 .143)">
  <g transform="translate(-18.6,-226)">
   <path d="m32.9 226a3.4 3.39 0 0 0-3.31 2.64c-4.03 1.14-7.22 4.32-8.36 8.34a3.4 3.39 0 0 0-2.65 3.3 3.4 3.39 0 0 0 2.65 3.3c1.15 4.02 4.33 7.2 8.36 8.34a3.4 3.39 0 0 0 3.31 2.64 3.4 3.39 0 0 0 3.31-2.63c3.15-0.878 5.81-2.97 7.65-5.72-0.819-0.162-1.6-0.491-2.28-0.966-1.45 2.01-3.44 3.53-5.72 4.25a3.4 3.39 0 0 0-2.95-1.72 3.4 3.39 0 0 0-2.95 1.72c-2.99-0.947-5.35-3.3-6.3-6.28a3.4 3.39 0 0 0 1.73-2.95 3.4 3.39 0 0 0-1.73-2.95c0.949-2.98 3.3-5.33 6.3-6.28a3.4 3.39 0 0 0 2.96 1.72 3.4 3.39 0 0 0 2.95-1.72c3.1 0.977 5.65 3.44 7.07 6.58a3.4 3.39 0 0 0-1.28 2.65 3.4 3.39 0 0 0 3.19 3.38c1.46 3.4 4.07 6.21 7.34 7.66a5.16 3.87 0 0 0 5.09 3.25 5.16 3.87 0 0 0 4.32-1.76c-2.59 0.445-4.33-0.597-4.33-0.597s0.853-2.76 4.58-3.33a5.16 3.87 0 0 0-4.56-2.07 5.16 3.87 0 0 0-4.56 2.06c-2.41-1.21-4.37-3.35-5.54-5.96a3.4 3.39 0 0 0 1.28-2.65 3.4 3.39 0 0 0-3.19-3.38c-1.71-3.97-4.97-7.13-9.03-8.27a3.4 3.39 0 0 0-3.31-2.63zm24.3 0a3.4 3.39 0 0 0-3.3 2.61c-3.17 0.867-5.87 2.97-7.72 5.74 0.819 0.162 1.59 0.491 2.28 0.966 1.46-2.03 3.47-3.56 5.78-4.27a3.4 3.39 0 0 0 2.96 1.73 3.4 3.39 0 0 0 2.94-1.71c2.97 0.958 5.3 3.3 6.25 6.26a3.4 3.39 0 0 0-1.73 2.95 3.4 3.39 0 0 0 1.92 3.05c-0.706 3.74-2.88 6.47-7.08 8.45 3.78-0.437 7.96-3.43 9.32-8.2a3.4 3.39 0 0 0 2.64-3.3 3.4 3.39 0 0 0-2.65-3.3c-1.14-4-4.29-7.16-8.29-8.32a3.4 3.39 0 0 0-3.32-2.66zm-1.75 22.6a0.971 0.968 0 0 1 0.971 0.968 0.971 0.968 0 0 1-0.971 0.968 0.971 0.968 0 0 1-0.971-0.968 0.971 0.968 0 0 1 0.971-0.968z" color="#000000" color-rendering="auto" dominant-baseline="auto" image-rendering="auto" shape-rendering="auto" solid-color="#000000" style="font-feature-settings:normal;font-variant-alternates:normal;font-variant-caps:normal;font-variant-ligatures:normal;font-variant-numeric:normal;font-variant-position:normal;isolation:auto;mix-blend-mode:normal;shape-padding:0;text-decoration-color:#000000;text-decoration-line:none;text-decoration-style:solid;text-indent:0;text-orientation:mixed;text-transform:none;white-space:normal"/>
  </g>
  <path transform="matrix(.265 0 0 .265 -.277 0)" d="m320 18v54h5.7l1.48-3.7c1.43 1.43 3.06 2.57 4.88 3.4 1.88 0.789 3.97 1.19 6.29 1.19 2.47 0 4.74-0.469 6.81-1.41 2.12-0.987 3.95-2.32 5.48-4 1.53-1.68 2.71-3.65 3.55-5.92 0.888-2.27 1.33-4.69 1.33-7.25s-0.446-4.98-1.33-7.25c-0.839-2.27-2.02-4.24-3.55-5.92s-3.35-2.99-5.48-3.92c-2.07-0.987-4.34-1.48-6.81-1.48-2.42 0-4.54 0.419-6.37 1.26-1.83 0.789-3.43 1.93-4.81 3.41v-22.4zm-49.5 17.8c-2.42 0-4.44 0.444-6.07 1.33-1.58 0.839-2.86 1.98-3.85 3.41l-1.48-3.92h-5.7v35.5h7.18l0.0742-21c0-1.18 0.247-2.3 0.74-3.33 0.543-1.09 1.26-2.02 2.15-2.81 0.888-0.789 1.95-1.41 3.18-1.85 1.23-0.493 2.57-0.74 4-0.74 0.444 0 0.863 0.0498 1.26 0.148 0.395 0.0987 0.741 0.196 1.04 0.295l1.04 0.445 1.85-6.74c-2.02-0.444-3.83-0.666-5.4-0.666zm25.8 0c-2.47 0-4.79 0.494-6.96 1.48-2.12 0.938-4 2.25-5.62 3.92-1.58 1.68-2.84 3.65-3.77 5.92s-1.41 4.69-1.41 7.25 0.469 4.98 1.41 7.25c0.938 2.27 2.19 4.24 3.77 5.92 1.63 1.68 3.5 3.01 5.62 4 2.17 0.938 4.49 1.41 6.96 1.41 2.42 0 4.71-0.469 6.88-1.41 2.17-0.987 4.05-2.32 5.62-4 1.63-1.68 2.91-3.65 3.85-5.92 0.938-2.27 1.41-4.69 1.41-7.25s-0.469-4.98-1.41-7.25-2.22-4.24-3.85-5.92c-1.58-1.68-3.45-2.99-5.62-3.92-2.17-0.987-4.47-1.48-6.88-1.48zm82.3 0c-2.47 0-4.79 0.494-6.96 1.48-2.12 0.938-4 2.25-5.62 3.92-1.58 1.68-2.84 3.65-3.77 5.92-0.938 2.27-1.41 4.69-1.41 7.25s0.469 4.98 1.41 7.25c0.938 2.27 2.19 4.24 3.77 5.92 1.63 1.68 3.5 3.01 5.62 4 2.17 0.938 4.49 1.41 6.96 1.41 2.42 0 4.71-0.469 6.88-1.41 2.17-0.987 4.05-2.32 5.62-4 1.63-1.68 2.91-3.65 3.85-5.92 0.938-2.27 1.41-4.69 1.41-7.25s-0.469-4.98-1.41-7.25-2.22-4.24-3.85-5.92c-1.58-1.68-3.45-2.99-5.62-3.92-2.17-0.987-4.47-1.48-6.88-1.48zm41.3 0c-2.42 0-4.44 0.444-6.07 1.33-1.58 0.839-2.86 1.98-3.85 3.41l-1.48-3.92h-5.7v35.5h7.18l0.0742-21c0-1.18 0.247-2.3 0.74-3.33 0.543-1.09 1.26-2.02 2.15-2.81 0.888-0.789 1.95-1.41 3.18-1.85 1.23-0.493 2.57-0.74 4-0.74 0.444 0 0.863 0.0498 1.26 0.148 0.395 0.0987 0.739 0.196 1.04 0.295l1.04 0.445 1.85-6.74c-2.02-0.444-3.82-0.666-5.4-0.666zm25.8 0c-2.47 0-4.79 0.494-6.96 1.48-2.12 0.938-4 2.25-5.62 3.92-1.58 1.68-2.84 3.65-3.78 5.92s-1.41 4.69-1.41 7.25 0.469 4.98 1.41 7.25c0.938 2.27 2.2 4.24 3.78 5.92 1.63 1.68 3.5 3.01 5.62 4 2.17 0.938 4.49 1.41 6.96 1.41 2.42 0 4.71-0.469 6.88-1.41 2.17-0.987 4.05-2.32 5.62-4 1.63-1.68 2.91-3.65 3.85-5.92 0.938-2.27 1.41-4.69 1.41-7.25s-0.469-4.98-1.41-7.25-2.22-4.24-3.85-5.92c-1.58-1.68-3.45-2.99-5.62-3.92-2.17-0.987-4.47-1.48-6.88-1.48zm35 0.223c-1.73 1e-6 -3.38 0.297-4.96 0.889-1.53 0.543-2.89 1.31-4.07 2.29-1.13 0.938-2.05 2.05-2.74 3.33-0.691 1.23-1.04 2.57-1.04 4 0 1.53 0.297 2.86 0.889 4 0.641 1.09 1.48 2.05 2.52 2.89 1.09 0.789 2.34 1.48 3.77 2.07 1.43 0.543 2.96 1.01 4.59 1.41 0.592 0.148 1.33 0.322 2.22 0.52 0.888 0.197 1.73 0.492 2.52 0.887 0.839 0.345 1.53 0.789 2.07 1.33 0.592 0.543 0.889 1.21 0.889 2 0 0.641-0.172 1.21-0.518 1.7-0.345 0.493-0.741 0.937-1.19 1.33-1.33 1.09-2.99 1.63-4.96 1.63-1.58 0-2.99-0.297-4.22-0.889-1.23-0.641-2.24-1.83-3.03-3.55l-6.07 2.74c0.839 2.52 2.44 4.54 4.81 6.07 2.42 1.48 5.16 2.22 8.22 2.22 2.02 0 3.9-0.272 5.62-0.814 1.78-0.592 3.28-1.38 4.51-2.37 1.28-1.04 2.27-2.25 2.96-3.63 0.74-1.38 1.11-2.86 1.11-4.44 0-1.33-0.222-2.52-0.666-3.55-0.395-1.09-1.11-2.07-2.15-2.96-1.04-0.888-2.42-1.7-4.15-2.44s-3.9-1.43-6.51-2.07c-0.592-0.148-1.23-0.32-1.93-0.518-0.691-0.197-1.33-0.444-1.92-0.74-0.592-0.345-1.11-0.764-1.55-1.26-0.395-0.493-0.592-1.09-0.592-1.78 0-0.641 0.172-1.21 0.518-1.7 0.395-0.493 0.863-0.912 1.41-1.26 0.543-0.345 1.14-0.592 1.78-0.74 0.641-0.197 1.26-0.297 1.85-0.297 1.73 0 3.09 0.394 4.07 1.18 0.987 0.789 1.63 1.78 1.92 2.96l6.44-1.55c-0.247-1.33-0.765-2.54-1.55-3.63-0.74-1.09-1.68-2-2.81-2.74-1.09-0.789-2.32-1.41-3.7-1.85-1.38-0.444-2.84-0.666-4.37-0.666zm-267 0.592v21.5c0 3.06 0.469 5.55 1.41 7.47 0.987 1.88 2.17 3.36 3.55 4.44 1.43 1.09 2.96 1.8 4.59 2.15 1.63 0.395 3.08 0.592 4.37 0.592 2.02 0 3.85-0.371 5.48-1.11 1.68-0.74 3.13-1.68 4.37-2.81l1.48 3.18h5.7v-35.5h-7.18v21.6c0 1.48-0.321 2.74-0.963 3.78-0.592 1.04-1.33 1.9-2.22 2.59-0.888 0.641-1.85 1.11-2.89 1.41-0.987 0.296-1.87 0.445-2.66 0.445-1.04 0-2.05-0.149-3.03-0.445-0.987-0.296-1.88-0.765-2.67-1.41-0.74-0.641-1.36-1.48-1.85-2.52-0.444-1.09-0.666-2.39-0.666-3.92v-21.5zm83 5.62c1.43 0 2.79 0.321 4.07 0.963s2.39 1.5 3.33 2.59c0.938 1.09 1.68 2.37 2.22 3.85 0.543 1.48 0.814 3.06 0.814 4.74 0 1.68-0.272 3.26-0.814 4.74-0.543 1.48-1.28 2.79-2.22 3.92-0.938 1.09-2.05 1.95-3.33 2.59-1.28 0.641-2.64 0.963-4.07 0.963-1.43 0-2.79-0.321-4.07-0.963-1.28-0.641-2.42-1.5-3.4-2.59-0.938-1.13-1.68-2.44-2.22-3.92-0.543-1.48-0.814-3.06-0.814-4.74 0-1.68 0.272-3.26 0.814-4.74 0.543-1.48 1.28-2.76 2.22-3.85 0.987-1.09 2.12-1.95 3.4-2.59 1.28-0.641 2.64-0.963 4.07-0.963zm82.3 0c1.43 0 2.79 0.321 4.07 0.963s2.39 1.5 3.33 2.59c0.938 1.09 1.68 2.37 2.22 3.85s0.814 3.06 0.814 4.74c0 1.68-0.272 3.26-0.814 4.74-0.543 1.48-1.28 2.79-2.22 3.92-0.938 1.09-2.05 1.95-3.33 2.59-1.28 0.641-2.64 0.963-4.07 0.963-1.43 0-2.79-0.321-4.07-0.963-1.28-0.641-2.42-1.5-3.4-2.59-0.938-1.13-1.68-2.44-2.22-3.92-0.543-1.48-0.814-3.06-0.814-4.74 0-1.68 0.272-3.26 0.814-4.74s1.28-2.76 2.22-3.85c0.987-1.09 2.12-1.95 3.4-2.59s2.64-0.963 4.07-0.963zm67.1 0c1.43 0 2.79 0.321 4.07 0.963s2.39 1.5 3.33 2.59c0.938 1.09 1.68 2.37 2.22 3.85s0.814 3.06 0.814 4.74c0 1.68-0.272 3.26-0.814 4.74-0.543 1.48-1.28 2.79-2.22 3.92-0.938 1.09-2.05 1.95-3.33 2.59-1.28 0.641-2.64 0.963-4.07 0.963-1.43 0-2.79-0.321-4.07-0.963-1.28-0.641-2.42-1.5-3.41-2.59-0.938-1.13-1.68-2.44-2.22-3.92-0.543-1.48-0.814-3.06-0.814-4.74 0-1.68 0.272-3.26 0.814-4.74s1.28-2.76 2.22-3.85c0.987-1.09 2.12-1.95 3.41-2.59s2.64-0.963 4.07-0.963zm-108 0.0742c1.43 0 2.79 0.321 4.07 0.963 1.28 0.592 2.39 1.43 3.33 2.52 0.938 1.09 1.68 2.37 2.22 3.85s0.814 3.06 0.814 4.74c0 1.68-0.272 3.26-0.814 4.74-0.543 1.48-1.28 2.79-2.22 3.92-0.938 1.09-2.05 1.95-3.33 2.59-1.28 0.641-2.64 0.963-4.07 0.963-1.43 0-2.79-0.247-4.07-0.74-1.28-0.493-2.42-1.23-3.4-2.22-0.938-1.04-1.68-2.32-2.22-3.85s-0.812-3.33-0.812-5.4c0-2.22 0.27-4.1 0.812-5.62 0.543-1.53 1.28-2.76 2.22-3.7 0.987-0.987 2.12-1.68 3.4-2.07 1.28-0.444 2.64-0.666 4.07-0.666z" stroke-width="1.85"/>
 </g>
</svg>
